<?xml version="1.0" encoding="UTF-8"?>
<!DOCTYPE svg PUBLIC "-//W3C//DTD SVG 1.1//EN" "http://www.w3.org/Graphics/SVG/1.1/DTD/svg11.dtd">
<svg xmlns="http://www.w3.org/2000/svg" xmlns:xlink="http://www.w3.org/1999/xlink" version="1.1" width="109px" height="110px" viewBox="-0.5 -0.5 109 110"><defs/><g><path d="M 102 65 Q 92 105 57 105 Q 22 105 7 75 Q -8 45 17 20 Q 42 -5 72 5 Q 102 15 102 54.9" fill="none" stroke="none" pointer-events="stroke" transform="translate(2,3)" opacity="0.25"/><path d="M 102 65 Q 92 105 57 105 Q 22 105 7 75 Q -8 45 17 20 Q 42 -5 72 5 Q 102 15 102 54.9" fill="none" stroke="none" pointer-events="stroke"/><path d="M 102 61.65 L 97.5 52.65 L 102 54.9 L 106.5 52.65 Z" fill="none" stroke="none" pointer-events="all"/><path d="M 102 65 M 102 65 C 94.25 90.87 79.19 103.01 57 105 M 102 65 C 93.31 93.24 81.01 103.35 57 105 M 57 105 C 34.17 104.66 18.46 93.7 7 75 M 57 105 C 33.23 103.69 18.91 94.6 7 75 M 7 75 C -2.43 53.13 1.81 36.71 17 20 M 7 75 C -1.34 56.21 -0.48 38.86 17 20 M 17 20 C 33.08 4.95 53.57 -0.99 72 5 M 17 20 C 34.53 1.28 53.04 -2.59 72 5 M 72 5 C 90.82 11.3 103.93 30.03 102 54.9 M 72 5 C 92.11 10.63 101.34 28.22 102 54.9" fill="none" stroke="#000000" stroke-width="3" stroke-linejoin="round" stroke-linecap="round" stroke-miterlimit="10" pointer-events="stroke" transform="translate(2,3)" opacity="0.25"/><path d="M 102 65 M 102 65 C 94.25 90.87 79.19 103.01 57 105 M 102 65 C 93.31 93.24 81.01 103.35 57 105 M 57 105 C 34.17 104.66 18.46 93.7 7 75 M 57 105 C 33.23 103.69 18.91 94.6 7 75 M 7 75 C -2.43 53.13 1.81 36.71 17 20 M 7 75 C -1.34 56.21 -0.48 38.86 17 20 M 17 20 C 33.08 4.95 53.57 -0.99 72 5 M 17 20 C 34.53 1.28 53.04 -2.59 72 5 M 72 5 C 90.82 11.3 103.93 30.03 102 54.9 M 72 5 C 92.11 10.63 101.34 28.22 102 54.9" fill="none" stroke="#0067ff" stroke-width="3" stroke-linejoin="round" stroke-linecap="round" stroke-miterlimit="10" pointer-events="stroke"/><path d="M 97.32 52.86 C 97.32 52.86 97.32 52.86 97.32 52.86 M 97.32 52.86 C 97.32 52.86 97.32 52.86 97.32 52.86" fill="none" stroke="#0067ff" stroke-width="1.5" stroke-linejoin="round" stroke-linecap="round" stroke-miterlimit="10" pointer-events="all"/><path d="M 102 61.65 M 102 61.65 C 99.35 58.96 98.59 55.49 97.5 52.65 M 102 61.65 C 100.3 58.93 99.25 55.51 97.5 52.65 M 97.5 52.65 C 98.8 53.09 100.42 54.63 102 54.9 M 97.5 52.65 C 99.17 53.53 100.74 54.43 102 54.9 M 102 54.9 C 103.15 54.53 104.55 53.03 106.5 52.65 M 102 54.9 C 103.84 54.01 105.32 53.4 106.5 52.65 M 106.5 52.65 C 105.15 55 104.03 59.08 102 61.65 M 106.5 52.65 C 105.57 55.47 104.05 57.74 102 61.65" fill="none" stroke="#0067ff" stroke-width="3" stroke-linejoin="round" stroke-linecap="round" stroke-miterlimit="10" pointer-events="all"/></g></svg>