<?xml version="1.0" encoding="UTF-8"?>
<!DOCTYPE svg PUBLIC "-//W3C//DTD SVG 1.1//EN" "http://www.w3.org/Graphics/SVG/1.1/DTD/svg11.dtd">
<svg xmlns="http://www.w3.org/2000/svg" xmlns:xlink="http://www.w3.org/1999/xlink" version="1.1" width="207px" height="197px" viewBox="-0.5 -0.5 207 197"><defs>
    <linearGradient id="Gradient2" x1="0" x2="0" y1="0" y2="1">
      <stop offset="0%" stop-color="#ff00ff" />
      <stop offset="100%" stop-color="#0067ff" />
    </linearGradient>
</defs>
<g><path d="M 178 108 Q 168 168 103 173 Q 38 178 28 123 Q 18 68 43 43 Q 68 18 123 23 Q 178 28 178 108" fill="none" stroke="none" pointer-events="stroke" transform="translate(2,3)" opacity="0.25"/><path d="M 178 108 Q 168 168 103 173 Q 38 178 28 123 Q 18 68 43 43 Q 68 18 123 23 Q 178 28 178 108" fill="none" stroke="none" pointer-events="stroke"/><path d="M 178 108 M 178 108 C 170.25 147.21 145.19 167.68 103 173 M 178 108 C 169.31 149.57 147.01 168.01 103 173 M 103 173 C 60.17 176 36.13 158.37 28 123 M 103 173 C 59.23 175.02 36.58 159.27 28 123 M 28 123 C 21.9 84.46 27.81 59.71 43 43 M 28 123 C 22.99 87.54 25.52 61.86 43 43 M 43 43 C 59.08 27.95 87.91 20.34 123 23 M 43 43 C 60.53 24.28 87.37 18.75 123 23 M 123 23 C 158.49 25.97 179.93 56.4 178 108 M 123 23 C 159.77 25.29 177.34 54.58 178 108" fill="none" stroke="#000000" stroke-width="3" stroke-linejoin="round" stroke-linecap="round" stroke-miterlimit="10" pointer-events="stroke" transform="translate(2,3)" opacity="0.25"/><path d="M 178 108 M 178 108 C 170.25 147.21 145.19 167.68 103 173 M 178 108 C 169.31 149.57 147.01 168.01 103 173 M 103 173 C 60.17 176 36.13 158.37 28 123 M 103 173 C 59.23 175.02 36.58 159.27 28 123 M 28 123 C 21.9 84.46 27.81 59.71 43 43 M 28 123 C 22.99 87.54 25.52 61.86 43 43 M 43 43 C 59.08 27.95 87.91 20.34 123 23 M 43 43 C 60.53 24.28 87.37 18.75 123 23 M 123 23 C 158.49 25.97 179.93 56.4 178 108 M 123 23 C 159.77 25.29 177.34 54.58 178 108" fill="none" stroke="#ffdd00" stroke-width="3" stroke-linejoin="round" stroke-linecap="round" stroke-miterlimit="10" pointer-events="stroke"/><path d="M 138 58 L 162.18 33.82" fill="none" stroke="none" pointer-events="stroke"/><path d="M 166.42 29.58 L 163.59 38.07 L 162.18 33.82 L 157.93 32.41 Z" fill="none" stroke="none" pointer-events="all"/><path d="M 138 58 M 138 58 C 144.17 54.12 150.85 46.31 162.18 33.82 M 138 58 C 145.45 50.42 151.91 44.2 162.18 33.82" fill="none" stroke="#ffdd00" stroke-opacity="0.6" stroke-width="2" stroke-linejoin="round" stroke-linecap="round" stroke-miterlimit="10" pointer-events="stroke"/><path d="M 157.76 32.61 C 157.76 32.61 157.76 32.61 157.76 32.61 M 157.76 32.61 C 157.76 32.61 157.76 32.61 157.76 32.61" fill="none" stroke="#ffdd00" stroke-opacity="0.6" stroke-linejoin="round" stroke-linecap="round" stroke-miterlimit="10" pointer-events="all"/><path d="M 166.42 29.58 M 166.42 29.58 C 165.8 31.47 164.59 34.01 163.59 38.07 M 166.42 29.58 C 165.77 31.49 164.63 33.46 163.59 38.07 M 163.59 38.07 C 163.35 37.41 162.99 35.9 162.18 33.82 M 163.59 38.07 C 163.06 36.35 162.49 34.63 162.18 33.82 M 162.18 33.82 C 160.91 33.59 159.66 32.88 157.93 32.41 M 162.18 33.82 C 161.15 33.28 160.28 33.34 157.93 32.41 M 157.93 32.41 C 161.81 30.81 164.37 30.48 166.42 29.58 M 157.93 32.41 C 159.74 31.79 161.71 31.12 166.42 29.58" fill="none" stroke="#ffdd00" stroke-opacity="0.6" stroke-width="2" stroke-linejoin="round" stroke-linecap="round" stroke-miterlimit="10" pointer-events="all"/><path d="M 58 138 L 33.82 162.18" fill="none" stroke="none" pointer-events="stroke"/><path d="M 29.58 166.42 L 32.41 157.93 L 33.82 162.18 L 38.07 163.59 Z" fill="none" stroke="none" pointer-events="all"/><path d="M 58 138 M 58 138 C 52.03 143.98 46.61 147.3 33.82 162.18 M 58 138 C 49.31 145.91 41.76 154.5 33.82 162.18" fill="none" stroke="#ffdd00" stroke-opacity="0.6" stroke-width="2" stroke-linejoin="round" stroke-linecap="round" stroke-miterlimit="10" pointer-events="stroke"/><path d="M 32.29 158.07 C 32.29 158.07 32.29 158.07 32.29 158.07 M 32.29 158.07 C 32.29 158.07 32.29 158.07 32.29 158.07" fill="none" stroke="#ffdd00" stroke-opacity="0.6" stroke-linejoin="round" stroke-linecap="round" stroke-miterlimit="10" pointer-events="all"/><path d="M 29.58 166.42 M 29.58 166.42 C 30.66 163.75 30.78 160.18 32.41 157.93 M 29.58 166.42 C 30.04 164.23 30.63 162.99 32.41 157.93 M 32.41 157.93 C 32.72 158.52 33.43 159.26 33.82 162.18 M 32.41 157.93 C 32.6 158.87 33.13 159.96 33.82 162.18 M 33.82 162.18 C 34.49 162.64 35.65 163.09 38.07 163.59 M 33.82 162.18 C 35.61 162.51 37.01 163.42 38.07 163.59 M 38.07 163.59 C 35.28 164.58 34.35 165.13 29.58 166.42 M 38.07 163.59 C 35.46 164.49 32.6 165.85 29.58 166.42" fill="none" stroke="#ffdd00" stroke-opacity="0.6" stroke-width="2" stroke-linejoin="round" stroke-linecap="round" stroke-miterlimit="10" pointer-events="all"/><path d="M 138 138 L 162.18 162.18" fill="none" stroke="none" pointer-events="stroke"/><path d="M 166.42 166.42 L 157.93 163.59 L 162.18 162.18 L 163.59 157.93 Z" fill="none" stroke="none" pointer-events="all"/><path d="M 138 138 M 138 138 C 141.86 142.87 150.19 150.39 162.18 162.18 M 138 138 C 142.77 143.04 149.02 149.75 162.18 162.18" fill="none" stroke="#ffdd00" stroke-opacity="0.6" stroke-width="2" stroke-linejoin="round" stroke-linecap="round" stroke-miterlimit="10" pointer-events="stroke"/><path d="M 157.76 163.78 C 157.76 163.78 157.76 163.78 157.76 163.78 M 157.76 163.78 C 157.76 163.78 157.76 163.78 157.76 163.78 M 166.42 166.01 C 167.41 164.63 168.6 163.72 169.05 162.99 M 166.42 166.01 C 167.63 164.62 168.44 163.66 169.05 162.99" fill="none" stroke="#ffdd00" stroke-opacity="0.6" stroke-linejoin="round" stroke-linecap="round" stroke-miterlimit="10" pointer-events="all"/><path d="M 166.42 166.42 M 166.42 166.42 C 163.01 165.42 159.84 164.78 157.93 163.59 M 166.42 166.42 C 164.35 165.65 162.05 164.64 157.93 163.59 M 157.93 163.59 C 159.76 163.16 160.73 162.26 162.18 162.18 M 157.93 163.59 C 159.21 163.31 160.88 162.71 162.18 162.18 M 162.18 162.18 C 162.79 160.36 163.25 159.18 163.59 157.93 M 162.18 162.18 C 162.34 161.07 162.68 160.03 163.59 157.93 M 163.59 157.93 C 164.07 159.92 164.95 161.77 166.42 166.42 M 163.59 157.93 C 164.21 160.11 164.99 161.79 166.42 166.42" fill="none" stroke="#ffdd00" stroke-opacity="0.6" stroke-width="2" stroke-linejoin="round" stroke-linecap="round" stroke-miterlimit="10" pointer-events="all"/><path d="M 58 58 L 33.82 33.82" fill="none" stroke="none" pointer-events="stroke"/><path d="M 29.58 29.58 L 38.07 32.41 L 33.82 33.82 L 32.41 38.07 Z" fill="none" stroke="none" pointer-events="all"/><path d="M 58 58 M 58 58 C 53.69 51.08 45.92 47.87 33.82 33.82 M 58 58 C 50.72 50.66 43.67 43.72 33.82 33.82" fill="none" stroke="#ffdd00" stroke-opacity="0.6" stroke-width="2" stroke-linejoin="round" stroke-linecap="round" stroke-miterlimit="10" pointer-events="stroke"/><path d="M 29.45 29.72 C 29.45 29.72 29.45 29.72 29.45 29.72 M 29.45 29.72 C 29.45 29.72 29.45 29.72 29.45 29.72 M 35.49 34.97 C 36 34.48 36.52 33.81 38.12 31.95 M 35.49 34.97 C 36.47 34.04 37.39 32.72 38.12 31.95" fill="none" stroke="#ffdd00" stroke-opacity="0.6" stroke-linejoin="round" stroke-linecap="round" stroke-miterlimit="10" pointer-events="all"/><path d="M 29.58 29.58 M 29.58 29.58 C 31.82 31.07 35.44 31.27 38.07 32.41 M 29.58 29.58 C 32.08 30.5 35.15 31.52 38.07 32.41 M 38.07 32.41 C 36.61 32.97 35.63 33.45 33.82 33.82 M 38.07 32.41 C 36.79 33.04 35.8 33.29 33.82 33.82 M 33.82 33.82 C 33.12 34.82 32.96 35.55 32.41 38.07 M 33.82 33.82 C 33.43 35.07 32.98 36.66 32.41 38.07 M 32.41 38.07 C 32.05 34.73 30.11 33.25 29.58 29.58 M 32.41 38.07 C 31.07 35.37 30.67 31.42 29.58 29.58" fill="none" stroke="#ffdd00" stroke-opacity="0.6" stroke-width="2" stroke-linejoin="round" stroke-linecap="round" stroke-miterlimit="10" pointer-events="all"/><path d="M 158 98 L 189.76 98" fill="none" stroke="none" pointer-events="stroke"/><path d="M 195.76 98 L 187.76 102 L 189.76 98 L 187.76 94 Z" fill="none" stroke="none" pointer-events="all"/><path d="M 158 98 M 158 98 C 165.26 99.23 172.94 97.68 189.76 98 M 158 98 C 169.31 98.13 181.03 97.71 189.76 98" fill="none" stroke="#ffdd00" stroke-opacity="0.6" stroke-width="2" stroke-linejoin="round" stroke-linecap="round" stroke-miterlimit="10" pointer-events="stroke"/><path d="M 187.53 94.26 C 187.53 94.26 187.53 94.26 187.53 94.26 M 187.53 94.26 C 187.53 94.26 187.53 94.26 187.53 94.26 M 189.63 104.04 C 190.6 102.15 192.98 101.65 194.88 98 M 189.63 104.04 C 191.15 102.2 193.22 99.62 194.88 98" fill="none" stroke="#ffdd00" stroke-opacity="0.6" stroke-linejoin="round" stroke-linecap="round" stroke-miterlimit="10" pointer-events="all"/><path d="M 195.76 98 M 195.76 98 C 192.63 98.29 192.02 99.39 187.76 102 M 195.76 98 C 193.42 99.56 190.62 100.6 187.76 102 M 187.76 102 C 187.87 101.11 188.88 99.61 189.76 98 M 187.76 102 C 188.38 101.19 188.72 100.01 189.76 98 M 189.76 98 C 189.14 96.37 188.88 95.35 187.76 94 M 189.76 98 C 189.07 97.27 188.64 96.26 187.76 94 M 187.76 94 C 190.42 95.84 194.77 97.93 195.76 98 M 187.76 94 C 190.62 95.72 193.49 96.4 195.76 98" fill="none" stroke="#ffdd00" stroke-opacity="0.6" stroke-width="2" stroke-linejoin="round" stroke-linecap="round" stroke-miterlimit="10" pointer-events="all"/><path d="M 48 98 L 16.24 98" fill="none" stroke="none" pointer-events="stroke"/><path d="M 10.24 98 L 18.24 94 L 16.24 98 L 18.24 102 Z" fill="none" stroke="none" pointer-events="all"/><path d="M 48 98 M 48 98 C 39.76 98.04 31.92 96.69 16.24 98 M 48 98 C 40.8 98.21 32.4 99.01 16.24 98" fill="none" stroke="#ffdd00" stroke-opacity="0.6" stroke-width="2" stroke-linejoin="round" stroke-linecap="round" stroke-miterlimit="10" pointer-events="stroke"/><path d="M 10.33 97.9 C 10.33 97.9 10.33 97.9 10.33 97.9 M 10.33 97.9 C 10.33 97.9 10.33 97.9 10.33 97.9 M 17.68 101.64 C 17.94 101.34 18.47 100.63 18.99 100.13 M 17.68 101.64 C 18.14 101.19 18.52 100.56 18.99 100.13" fill="none" stroke="#ffdd00" stroke-opacity="0.6" stroke-linejoin="round" stroke-linecap="round" stroke-miterlimit="10" pointer-events="all"/><path d="M 10.24 98 M 10.24 98 C 12.94 96.74 13.97 96.35 18.24 94 M 10.24 98 C 13.47 96.57 16.16 95.04 18.24 94 M 18.24 94 C 18 94.93 17.32 95.68 16.24 98 M 18.24 94 C 17.25 95.76 16.79 97.11 16.24 98 M 16.24 98 C 17.38 99.49 17.76 100.68 18.24 102 M 16.24 98 C 16.92 99.46 17.64 100.47 18.24 102 M 18.24 102 C 16.17 100.33 13.82 99.11 10.24 98 M 18.24 102 C 15.7 101.3 13.09 99.62 10.24 98" fill="none" stroke="#ffdd00" stroke-opacity="0.6" stroke-width="2" stroke-linejoin="round" stroke-linecap="round" stroke-miterlimit="10" pointer-events="all"/><path d="M 98 48 L 98 16.24" fill="none" stroke="none" pointer-events="stroke"/><path d="M 98 10.24 L 102 18.24 L 98 16.24 L 94 18.24 Z" fill="none" stroke="none" pointer-events="all"/><path d="M 98 48 M 98 48 C 99.54 40.03 97.7 31.71 98 16.24 M 98 48 C 98.06 38.29 99.04 28.2 98 16.24" fill="none" stroke="#ffdd00" stroke-opacity="0.6" stroke-width="2" stroke-linejoin="round" stroke-linecap="round" stroke-miterlimit="10" pointer-events="stroke"/><path d="M 98.21 9.99 C 98.21 9.99 98.21 9.99 98.21 9.99 M 98.21 9.99 C 98.21 9.99 98.21 9.99 98.21 9.99 M 100.97 19.02 C 101.1 18.75 101.33 18.5 101.63 18.26 M 100.97 19.02 C 101.15 18.79 101.36 18.59 101.63 18.26" fill="none" stroke="#ffdd00" stroke-opacity="0.6" stroke-linejoin="round" stroke-linecap="round" stroke-miterlimit="10" pointer-events="all"/><path d="M 98 10.24 M 98 10.24 C 99.27 12.16 100.03 13.36 102 18.24 M 98 10.24 C 98.64 12.32 99.59 13.72 102 18.24 M 102 18.24 C 100.43 17.67 98.9 16.44 98 16.24 M 102 18.24 C 100.56 17.72 99.09 16.76 98 16.24 M 98 16.24 C 96.86 17.12 95.66 16.81 94 18.24 M 98 16.24 C 97.27 16.79 95.97 17.13 94 18.24 M 94 18.24 C 96.33 15.72 96.36 12.07 98 10.24 M 94 18.24 C 95.42 16.61 95.78 14.19 98 10.24" fill="none" stroke="#ffdd00" stroke-opacity="0.6" stroke-width="2" stroke-linejoin="round" stroke-linecap="round" stroke-miterlimit="10" pointer-events="all"/><path d="M 98 148 L 98 179.76" fill="none" stroke="none" pointer-events="stroke"/><path d="M 98 185.76 L 94 177.76 L 98 179.76 L 102 177.76 Z" fill="none" stroke="none" pointer-events="all"/><path d="M 98 148 M 98 148 C 98.96 153.35 99.94 163.57 98 179.76 M 98 148 C 96.82 161 97.38 172.63 98 179.76" fill="none" stroke="#ffdd00" stroke-opacity="0.6" stroke-width="2" stroke-linejoin="round" stroke-linecap="round" stroke-miterlimit="10" pointer-events="stroke"/><path d="M 94.25 177.47 C 94.25 177.47 94.25 177.47 94.25 177.47 M 94.25 177.47 C 94.25 177.47 94.25 177.47 94.25 177.47 M 97.66 185.74 C 98.89 184.01 102.44 180.94 103.57 178.95 M 97.66 185.74 C 99.65 183.89 100.95 182.09 103.57 178.95" fill="none" stroke="#ffdd00" stroke-opacity="0.6" stroke-linejoin="round" stroke-linecap="round" stroke-miterlimit="10" pointer-events="all"/><path d="M 98 185.76 M 98 185.76 C 96.66 183.46 94.16 180.63 94 177.76 M 98 185.76 C 97.16 183.92 95.65 181.67 94 177.76 M 94 177.76 C 95.49 178.46 96.58 178.89 98 179.76 M 94 177.76 C 95.27 178.52 96.44 178.82 98 179.76 M 98 179.76 C 99.58 179.02 100.88 178.84 102 177.76 M 98 179.76 C 99.25 179.09 100.66 178.51 102 177.76 M 102 177.76 C 100.71 179.4 100.54 181.85 98 185.76 M 102 177.76 C 101.18 179.96 100.05 181.57 98 185.76" fill="none" stroke="#ffdd00" stroke-opacity="0.6" stroke-width="2" stroke-linejoin="round" stroke-linecap="round" stroke-miterlimit="10" pointer-events="all"/><path d="M 158 98 Q 148 158 93 153 Q 38 148 38 93 Q 38 38 98 33 Q 158 28 175.22 88.28" fill="none" stroke="none" pointer-events="stroke" transform="translate(2,3)" opacity="0.25"/><path d="M 158 98 Q 148 158 93 153 Q 38 148 38 93 Q 38 38 98 33 Q 158 28 175.22 88.28" fill="none" stroke="none" pointer-events="stroke"/><path d="M 177.08 94.78 L 170.28 87.36 L 175.22 88.28 L 178.93 84.89 Z" fill="none" stroke="none" pointer-events="all"/><path d="M 158 98 M 158 98 C 151.84 136.02 127.73 154.97 93 153 M 158 98 C 151.88 136.1 128.22 158.61 93 153 M 93 153 C 57.52 148.28 37.3 131.36 38 93 M 93 153 C 58.25 151 37.76 129.18 38 93 M 38 93 C 36.01 56.58 57.35 35.69 98 33 M 38 93 C 37.29 54.12 58.17 34.85 98 33 M 98 33 C 137.98 30.46 163.18 49.34 175.22 88.28 M 98 33 C 136.97 27.91 165.5 48.68 175.22 88.28" fill="none" stroke="#000000" stroke-width="3" stroke-linejoin="round" stroke-linecap="round" stroke-miterlimit="10" pointer-events="stroke" transform="translate(2,3)" opacity="0.25"/><path d="M 158 98 M 158 98 C 151.84 136.02 127.73 154.97 93 153 M 158 98 C 151.88 136.1 128.22 158.61 93 153 M 93 153 C 57.52 148.28 37.3 131.36 38 93 M 93 153 C 58.25 151 37.76 129.18 38 93 M 38 93 C 36.01 56.58 57.35 35.69 98 33 M 38 93 C 37.29 54.12 58.17 34.85 98 33 M 98 33 C 137.98 30.46 163.18 49.34 175.22 88.28 M 98 33 C 136.97 27.91 165.5 48.68 175.22 88.28" fill="none" stroke="url(#Gradient2)" stroke-width="3" stroke-linejoin="round" stroke-linecap="round" stroke-miterlimit="10" pointer-events="stroke"/><path d="M 170.35 87.28 C 170.35 87.28 170.35 87.28 170.35 87.28 M 170.35 87.28 C 170.35 87.28 170.35 87.28 170.35 87.28" fill="none" stroke="#ff00ff" stroke-width="1.5" stroke-linejoin="round" stroke-linecap="round" stroke-miterlimit="10" pointer-events="all"/><path d="M 177.08 94.78 M 177.08 94.78 C 175.25 92.23 172.83 90.1 170.28 87.36 M 177.08 94.78 C 175.69 93.42 174.16 92.03 170.28 87.36 M 170.28 87.36 C 171.66 87.83 173.08 88.25 175.22 88.28 M 170.28 87.36 C 171.6 87.81 173.28 88.09 175.22 88.28 M 175.22 88.28 C 176.22 86.83 178.01 86.09 178.93 84.89 M 175.22 88.28 C 176.33 87.2 177.41 86.08 178.93 84.89 M 178.93 84.89 C 178.87 86.39 177.88 88.62 177.08 94.78 M 178.93 84.89 C 178.04 87.24 177.68 88.71 177.08 94.78" fill="none" stroke="#ff00ff" stroke-width="3" stroke-linejoin="round" stroke-linecap="round" stroke-miterlimit="10" pointer-events="all"/></g></svg>
