<?xml version="1.0" encoding="UTF-8"?>
<!DOCTYPE svg PUBLIC "-//W3C//DTD SVG 1.1//EN" "http://www.w3.org/Graphics/SVG/1.1/DTD/svg11.dtd">
<svg xmlns="http://www.w3.org/2000/svg" xmlns:xlink="http://www.w3.org/1999/xlink" version="1.1" width="207px" height="197px" viewBox="-0.5 -0.5 207 197"><defs/><g><path d="M 148 108 Q 138 148 103 148 Q 68 148 53 118 Q 38 88 63 63 Q 88 38 123 53 Q 158 68 148 108" fill="none" stroke="none" pointer-events="stroke" transform="translate(2,3)" opacity="0.25"/><path d="M 148 108 Q 138 148 103 148 Q 68 148 53 118 Q 38 88 63 63 Q 88 38 123 53 Q 158 68 148 108" fill="none" stroke="none" pointer-events="stroke"/><path d="M 148 108 M 148 108 C 140.25 133.87 125.19 146.01 103 148 M 148 108 C 139.31 136.24 127.01 146.35 103 148 M 103 148 C 80.17 147.66 64.46 136.7 53 118 M 103 148 C 79.23 146.69 64.91 137.6 53 118 M 53 118 C 43.57 96.13 47.81 79.71 63 63 M 53 118 C 44.66 99.21 45.52 81.86 63 63 M 63 63 C 79.08 47.95 101.24 43.67 123 53 M 63 63 C 80.53 44.28 100.7 42.08 123 53 M 123 53 C 145.16 62.64 156.6 83.06 148 108 M 123 53 C 146.44 61.96 154 81.25 148 108" fill="none" stroke="#000000" stroke-width="3" stroke-linejoin="round" stroke-linecap="round" stroke-miterlimit="10" pointer-events="stroke" transform="translate(2,3)" opacity="0.25"/><path d="M 148 108 M 148 108 C 140.25 133.87 125.19 146.01 103 148 M 148 108 C 139.31 136.24 127.01 146.35 103 148 M 103 148 C 80.17 147.66 64.46 136.7 53 118 M 103 148 C 79.23 146.69 64.91 137.6 53 118 M 53 118 C 43.57 96.13 47.81 79.71 63 63 M 53 118 C 44.66 99.21 45.52 81.86 63 63 M 63 63 C 79.08 47.95 101.24 43.67 123 53 M 63 63 C 80.53 44.28 100.7 42.08 123 53 M 123 53 C 145.16 62.64 156.6 83.06 148 108 M 123 53 C 146.44 61.96 154 81.25 148 108" fill="none" stroke="#ffdd00" stroke-width="3" stroke-linejoin="round" stroke-linecap="round" stroke-miterlimit="10" pointer-events="stroke"/><path d="M 138 58 L 162.18 33.82" fill="none" stroke="none" pointer-events="stroke"/><path d="M 166.42 29.58 L 163.59 38.07 L 162.18 33.82 L 157.93 32.41 Z" fill="none" stroke="none" pointer-events="all"/><path d="M 138 58 M 138 58 C 144.17 54.12 150.85 46.31 162.18 33.82 M 138 58 C 145.45 50.42 151.91 44.2 162.18 33.82" fill="none" stroke="#ffdd00" stroke-opacity="0.6" stroke-width="2" stroke-linejoin="round" stroke-linecap="round" stroke-miterlimit="10" pointer-events="stroke"/><path d="M 157.62 32.77 C 157.62 32.77 157.62 32.77 157.62 32.77 M 157.62 32.77 C 157.62 32.77 157.62 32.77 157.62 32.77" fill="none" stroke="#ffdd00" stroke-opacity="0.6" stroke-linejoin="round" stroke-linecap="round" stroke-miterlimit="10" pointer-events="all"/><path d="M 166.42 29.58 M 166.42 29.58 C 165.8 31.47 164.59 34.01 163.59 38.07 M 166.42 29.58 C 165.77 31.49 164.63 33.46 163.59 38.07 M 163.59 38.07 C 163.35 37.41 162.99 35.9 162.18 33.82 M 163.59 38.07 C 163.06 36.35 162.49 34.63 162.18 33.82 M 162.18 33.82 C 160.91 33.59 159.66 32.88 157.93 32.41 M 162.18 33.82 C 161.15 33.28 160.28 33.34 157.93 32.41 M 157.93 32.41 C 161.81 30.81 164.37 30.48 166.42 29.58 M 157.93 32.41 C 159.74 31.79 161.71 31.12 166.42 29.58" fill="none" stroke="#ffdd00" stroke-opacity="0.6" stroke-width="2" stroke-linejoin="round" stroke-linecap="round" stroke-miterlimit="10" pointer-events="all"/><path d="M 58 138 L 33.82 162.18" fill="none" stroke="none" pointer-events="stroke"/><path d="M 29.58 166.42 L 32.41 157.93 L 33.82 162.18 L 38.07 163.59 Z" fill="none" stroke="none" pointer-events="all"/><path d="M 58 138 M 58 138 C 52.03 143.98 46.61 147.3 33.82 162.18 M 58 138 C 49.31 145.91 41.76 154.5 33.82 162.18" fill="none" stroke="#ffdd00" stroke-opacity="0.6" stroke-width="2" stroke-linejoin="round" stroke-linecap="round" stroke-miterlimit="10" pointer-events="stroke"/><path d="M 32.15 158.23 C 32.15 158.23 32.15 158.23 32.15 158.23 M 32.15 158.23 C 32.15 158.23 32.15 158.23 32.15 158.23" fill="none" stroke="#ffdd00" stroke-opacity="0.6" stroke-linejoin="round" stroke-linecap="round" stroke-miterlimit="10" pointer-events="all"/><path d="M 29.58 166.42 M 29.58 166.42 C 30.66 163.75 30.78 160.18 32.41 157.93 M 29.58 166.42 C 30.04 164.23 30.63 162.99 32.41 157.93 M 32.41 157.93 C 32.72 158.52 33.43 159.26 33.82 162.18 M 32.41 157.93 C 32.6 158.87 33.13 159.96 33.82 162.18 M 33.82 162.18 C 34.49 162.64 35.65 163.09 38.07 163.59 M 33.82 162.18 C 35.61 162.51 37.01 163.42 38.07 163.59 M 38.07 163.59 C 35.28 164.58 34.35 165.13 29.58 166.42 M 38.07 163.59 C 35.46 164.49 32.6 165.85 29.58 166.42" fill="none" stroke="#ffdd00" stroke-opacity="0.6" stroke-width="2" stroke-linejoin="round" stroke-linecap="round" stroke-miterlimit="10" pointer-events="all"/><path d="M 138 138 L 162.18 162.18" fill="none" stroke="none" pointer-events="stroke"/><path d="M 166.42 166.42 L 157.93 163.59 L 162.18 162.18 L 163.59 157.93 Z" fill="none" stroke="none" pointer-events="all"/><path d="M 138 138 M 138 138 C 141.86 142.87 150.19 150.39 162.18 162.18 M 138 138 C 142.77 143.04 149.02 149.75 162.18 162.18" fill="none" stroke="#ffdd00" stroke-opacity="0.6" stroke-width="2" stroke-linejoin="round" stroke-linecap="round" stroke-miterlimit="10" pointer-events="stroke"/><path d="M 157.62 163.95 C 157.62 163.95 157.62 163.95 157.62 163.95 M 157.62 163.95 C 157.62 163.95 157.62 163.95 157.62 163.95 M 166.28 166.18 C 167.27 164.79 168.46 163.89 168.91 163.16 M 166.28 166.18 C 167.49 164.78 168.29 163.82 168.91 163.16" fill="none" stroke="#ffdd00" stroke-opacity="0.6" stroke-linejoin="round" stroke-linecap="round" stroke-miterlimit="10" pointer-events="all"/><path d="M 166.42 166.42 M 166.42 166.42 C 163.01 165.42 159.84 164.78 157.93 163.59 M 166.42 166.42 C 164.35 165.65 162.05 164.64 157.93 163.59 M 157.93 163.59 C 159.76 163.16 160.73 162.26 162.18 162.18 M 157.93 163.59 C 159.21 163.31 160.88 162.71 162.18 162.18 M 162.18 162.18 C 162.79 160.36 163.25 159.18 163.59 157.93 M 162.18 162.18 C 162.34 161.07 162.68 160.03 163.59 157.93 M 163.59 157.93 C 164.07 159.92 164.95 161.77 166.42 166.42 M 163.59 157.93 C 164.21 160.11 164.99 161.79 166.42 166.42" fill="none" stroke="#ffdd00" stroke-opacity="0.6" stroke-width="2" stroke-linejoin="round" stroke-linecap="round" stroke-miterlimit="10" pointer-events="all"/><path d="M 58 58 L 33.82 33.82" fill="none" stroke="none" pointer-events="stroke"/><path d="M 29.58 29.58 L 38.07 32.41 L 33.82 33.82 L 32.41 38.07 Z" fill="none" stroke="none" pointer-events="all"/><path d="M 58 58 M 58 58 C 53.69 51.08 45.92 47.87 33.82 33.82 M 58 58 C 50.72 50.66 43.67 43.72 33.82 33.82" fill="none" stroke="#ffdd00" stroke-opacity="0.6" stroke-width="2" stroke-linejoin="round" stroke-linecap="round" stroke-miterlimit="10" pointer-events="stroke"/><path d="M 29.31 29.89 C 29.31 29.89 29.31 29.89 29.31 29.89 M 29.31 29.89 C 29.31 29.89 29.31 29.89 29.31 29.89 M 35.35 35.13 C 35.86 34.64 36.38 33.97 37.98 32.12 M 35.35 35.13 C 36.33 34.2 37.25 32.88 37.98 32.12" fill="none" stroke="#ffdd00" stroke-opacity="0.6" stroke-linejoin="round" stroke-linecap="round" stroke-miterlimit="10" pointer-events="all"/><path d="M 29.58 29.58 M 29.58 29.58 C 31.82 31.07 35.44 31.27 38.07 32.41 M 29.58 29.58 C 32.08 30.5 35.15 31.52 38.07 32.41 M 38.07 32.41 C 36.61 32.97 35.63 33.45 33.82 33.82 M 38.07 32.41 C 36.79 33.04 35.8 33.29 33.82 33.82 M 33.82 33.82 C 33.12 34.82 32.96 35.55 32.41 38.07 M 33.82 33.82 C 33.43 35.07 32.98 36.66 32.41 38.07 M 32.41 38.07 C 32.05 34.73 30.11 33.25 29.58 29.58 M 32.41 38.07 C 31.07 35.37 30.67 31.42 29.58 29.58" fill="none" stroke="#ffdd00" stroke-opacity="0.6" stroke-width="2" stroke-linejoin="round" stroke-linecap="round" stroke-miterlimit="10" pointer-events="all"/><path d="M 158 98 L 189.76 98" fill="none" stroke="none" pointer-events="stroke"/><path d="M 195.76 98 L 187.76 102 L 189.76 98 L 187.76 94 Z" fill="none" stroke="none" pointer-events="all"/><path d="M 158 98 M 158 98 C 165.26 99.23 172.94 97.68 189.76 98 M 158 98 C 169.31 98.13 181.03 97.71 189.76 98" fill="none" stroke="#ffdd00" stroke-opacity="0.6" stroke-width="2" stroke-linejoin="round" stroke-linecap="round" stroke-miterlimit="10" pointer-events="stroke"/><path d="M 188.05 93.67 C 188.05 93.67 188.05 93.67 188.05 93.67 M 188.05 93.67 C 188.05 93.67 188.05 93.67 188.05 93.67 M 190.15 103.45 C 191.12 101.55 193.49 101.06 195.4 97.41 M 190.15 103.45 C 191.66 101.61 193.73 99.03 195.4 97.41" fill="none" stroke="#ffdd00" stroke-opacity="0.6" stroke-linejoin="round" stroke-linecap="round" stroke-miterlimit="10" pointer-events="all"/><path d="M 195.76 98 M 195.76 98 C 192.63 98.29 192.02 99.39 187.76 102 M 195.76 98 C 193.42 99.56 190.62 100.6 187.76 102 M 187.76 102 C 187.87 101.11 188.88 99.61 189.76 98 M 187.76 102 C 188.38 101.19 188.72 100.01 189.76 98 M 189.76 98 C 189.14 96.37 188.88 95.35 187.76 94 M 189.76 98 C 189.07 97.27 188.64 96.26 187.76 94 M 187.76 94 C 190.42 95.84 194.77 97.93 195.76 98 M 187.76 94 C 190.62 95.72 193.49 96.4 195.76 98" fill="none" stroke="#ffdd00" stroke-opacity="0.6" stroke-width="2" stroke-linejoin="round" stroke-linecap="round" stroke-miterlimit="10" pointer-events="all"/><path d="M 48 98 L 16.24 98" fill="none" stroke="none" pointer-events="stroke"/><path d="M 10.24 98 L 18.24 94 L 16.24 98 L 18.24 102 Z" fill="none" stroke="none" pointer-events="all"/><path d="M 48 98 M 48 98 C 39.76 98.04 31.92 96.69 16.24 98 M 48 98 C 40.8 98.21 32.4 99.01 16.24 98" fill="none" stroke="#ffdd00" stroke-opacity="0.6" stroke-width="2" stroke-linejoin="round" stroke-linecap="round" stroke-miterlimit="10" pointer-events="stroke"/><path d="M 10.19 98.06 C 10.19 98.06 10.19 98.06 10.19 98.06 M 10.19 98.06 C 10.19 98.06 10.19 98.06 10.19 98.06 M 17.54 101.8 C 17.8 101.5 18.33 100.79 18.85 100.29 M 17.54 101.8 C 18 101.35 18.38 100.72 18.85 100.29" fill="none" stroke="#ffdd00" stroke-opacity="0.6" stroke-linejoin="round" stroke-linecap="round" stroke-miterlimit="10" pointer-events="all"/><path d="M 10.24 98 M 10.24 98 C 12.94 96.74 13.97 96.35 18.24 94 M 10.24 98 C 13.47 96.57 16.16 95.04 18.24 94 M 18.24 94 C 18 94.93 17.32 95.68 16.24 98 M 18.24 94 C 17.25 95.76 16.79 97.11 16.24 98 M 16.24 98 C 17.38 99.49 17.76 100.68 18.24 102 M 16.24 98 C 16.92 99.46 17.64 100.47 18.24 102 M 18.24 102 C 16.17 100.33 13.82 99.11 10.24 98 M 18.24 102 C 15.7 101.3 13.09 99.62 10.24 98" fill="none" stroke="#ffdd00" stroke-opacity="0.6" stroke-width="2" stroke-linejoin="round" stroke-linecap="round" stroke-miterlimit="10" pointer-events="all"/><path d="M 98 48 L 98 16.24" fill="none" stroke="none" pointer-events="stroke"/><path d="M 98 10.24 L 102 18.24 L 98 16.24 L 94 18.24 Z" fill="none" stroke="none" pointer-events="all"/><path d="M 98 48 M 98 48 C 99.54 40.03 97.7 31.71 98 16.24 M 98 48 C 98.06 38.29 99.04 28.2 98 16.24" fill="none" stroke="#ffdd00" stroke-opacity="0.6" stroke-width="2" stroke-linejoin="round" stroke-linecap="round" stroke-miterlimit="10" pointer-events="stroke"/><path d="M 98.07 10.16 C 98.07 10.16 98.07 10.16 98.07 10.16 M 98.07 10.16 C 98.07 10.16 98.07 10.16 98.07 10.16 M 100.83 19.18 C 101.08 18.65 101.54 18.15 102.14 17.67 M 100.83 19.18 C 101.18 18.73 101.62 18.32 102.14 17.67" fill="none" stroke="#ffdd00" stroke-opacity="0.6" stroke-linejoin="round" stroke-linecap="round" stroke-miterlimit="10" pointer-events="all"/><path d="M 98 10.24 M 98 10.24 C 99.27 12.16 100.03 13.36 102 18.24 M 98 10.24 C 98.64 12.32 99.59 13.72 102 18.24 M 102 18.24 C 100.43 17.67 98.9 16.44 98 16.24 M 102 18.24 C 100.56 17.72 99.09 16.76 98 16.24 M 98 16.24 C 96.86 17.12 95.66 16.81 94 18.24 M 98 16.24 C 97.27 16.79 95.97 17.13 94 18.24 M 94 18.24 C 96.33 15.72 96.36 12.07 98 10.24 M 94 18.24 C 95.42 16.61 95.78 14.19 98 10.24" fill="none" stroke="#ffdd00" stroke-opacity="0.6" stroke-width="2" stroke-linejoin="round" stroke-linecap="round" stroke-miterlimit="10" pointer-events="all"/><path d="M 98 148 L 98 179.76" fill="none" stroke="none" pointer-events="stroke"/><path d="M 98 185.76 L 94 177.76 L 98 179.76 L 102 177.76 Z" fill="none" stroke="none" pointer-events="all"/><path d="M 98 148 M 98 148 C 98.96 153.35 99.94 163.57 98 179.76 M 98 148 C 96.82 161 97.38 172.63 98 179.76" fill="none" stroke="#ffdd00" stroke-opacity="0.6" stroke-width="2" stroke-linejoin="round" stroke-linecap="round" stroke-miterlimit="10" pointer-events="stroke"/><path d="M 94.11 177.64 C 94.11 177.64 94.11 177.64 94.11 177.64 M 94.11 177.64 C 94.11 177.64 94.11 177.64 94.11 177.64 M 98.18 185.15 C 99.27 183.61 102.43 180.88 103.43 179.11 M 98.18 185.15 C 99.95 183.5 101.1 181.91 103.43 179.11" fill="none" stroke="#ffdd00" stroke-opacity="0.6" stroke-linejoin="round" stroke-linecap="round" stroke-miterlimit="10" pointer-events="all"/><path d="M 98 185.76 M 98 185.76 C 96.66 183.46 94.16 180.63 94 177.76 M 98 185.76 C 97.16 183.92 95.65 181.67 94 177.76 M 94 177.76 C 95.49 178.46 96.58 178.89 98 179.76 M 94 177.76 C 95.27 178.52 96.44 178.82 98 179.76 M 98 179.76 C 99.58 179.02 100.88 178.84 102 177.76 M 98 179.76 C 99.25 179.09 100.66 178.51 102 177.76 M 102 177.76 C 100.71 179.4 100.54 181.85 98 185.76 M 102 177.76 C 101.18 179.96 100.05 181.57 98 185.76" fill="none" stroke="#ffdd00" stroke-opacity="0.6" stroke-width="2" stroke-linejoin="round" stroke-linecap="round" stroke-miterlimit="10" pointer-events="all"/></g></svg>