<?xml version="1.0" encoding="UTF-8" standalone="no"?>
<!-- Created with Inkscape (http://www.inkscape.org/) -->

<svg
   xmlns:dc="http://purl.org/dc/elements/1.1/"
   xmlns:cc="http://creativecommons.org/ns#"
   xmlns:rdf="http://www.w3.org/1999/02/22-rdf-syntax-ns#"
   xmlns:svg="http://www.w3.org/2000/svg"
   xmlns="http://www.w3.org/2000/svg"
   xmlns:sodipodi="http://sodipodi.sourceforge.net/DTD/sodipodi-0.dtd"
   xmlns:inkscape="http://www.inkscape.org/namespaces/inkscape"
   width="764.12677"
   height="656.44916"
   viewBox="0 0 202.17521 173.68551"
   version="1.1"
   id="svg8"
   inkscape:version="0.92.4 (5da689c313, 2019-01-14)"
   sodipodi:docname="spiro.svg">
  <defs
     id="defs2">
    <marker
       inkscape:isstock="true"
       style="overflow:visible"
       id="marker1460"
       refX="0"
       refY="0"
       orient="auto"
       inkscape:stockid="Arrow2Lend">
      <path
         transform="matrix(-1.1,0,0,-1.1,-1.1,0)"
         d="M 8.7185878,4.0337352 -2.2072895,0.01601326 8.7185884,-4.0017078 c -1.7454984,2.3720609 -1.7354408,5.6174519 -6e-7,8.035443 z"
         style="fill:#c19c00;fill-opacity:0.50510206;fill-rule:evenodd;stroke:#c19c00;stroke-width:0.625;stroke-linejoin:round;stroke-opacity:0.50510206"
         id="path1458"
         inkscape:connector-curvature="0" />
    </marker>
    <marker
       inkscape:isstock="true"
       style="overflow:visible"
       id="marker1402"
       refX="0"
       refY="0"
       orient="auto"
       inkscape:stockid="Arrow2Lend">
      <path
         transform="matrix(-1.1,0,0,-1.1,-1.1,0)"
         d="M 8.7185878,4.0337352 -2.2072895,0.01601326 8.7185884,-4.0017078 c -1.7454984,2.3720609 -1.7354408,5.6174519 -6e-7,8.035443 z"
         style="fill:#00aa00;fill-opacity:0.48214291;fill-rule:evenodd;stroke:#00aa00;stroke-width:0.625;stroke-linejoin:round;stroke-opacity:0.48214291"
         id="path1400"
         inkscape:connector-curvature="0" />
    </marker>
    <marker
       inkscape:isstock="true"
       style="overflow:visible"
       id="marker1372"
       refX="0"
       refY="0"
       orient="auto"
       inkscape:stockid="Arrow2Lend">
      <path
         transform="matrix(-1.1,0,0,-1.1,-1.1,0)"
         d="M 8.7185878,4.0337352 -2.2072895,0.01601326 8.7185884,-4.0017078 c -1.7454984,2.3720609 -1.7354408,5.6174519 -6e-7,8.035443 z"
         style="fill:#c90e10;fill-opacity:0.32653061;fill-rule:evenodd;stroke:#c90e10;stroke-width:0.625;stroke-linejoin:round;stroke-opacity:0.32653061"
         id="path1370"
         inkscape:connector-curvature="0" />
    </marker>
    <marker
       inkscape:stockid="Arrow2Mend"
       orient="auto"
       refY="0"
       refX="0"
       id="Arrow2Mend"
       style="overflow:visible"
       inkscape:isstock="true">
      <path
         id="path863"
         style="fill:#9b00b2;fill-opacity:1;fill-rule:evenodd;stroke:#9b00b2;stroke-width:0.625;stroke-linejoin:round;stroke-opacity:1"
         d="M 8.7185878,4.0337352 -2.2072895,0.01601326 8.7185884,-4.0017078 c -1.7454984,2.3720609 -1.7354408,5.6174519 -6e-7,8.035443 z"
         transform="scale(-0.6)"
         inkscape:connector-curvature="0" />
    </marker>
    <marker
       inkscape:stockid="Arrow1Lend"
       orient="auto"
       refY="0"
       refX="0"
       id="Arrow1Lend"
       style="overflow:visible"
       inkscape:isstock="true">
      <path
         id="path839"
         d="M 0,0 5,-5 -12.5,0 5,5 Z"
         style="fill:#9b00b2;fill-opacity:1;fill-rule:evenodd;stroke:#9b00b2;stroke-width:1.00000003pt;stroke-opacity:1"
         transform="matrix(-0.8,0,0,-0.8,-10,0)"
         inkscape:connector-curvature="0" />
    </marker>
    <marker
       inkscape:stockid="Arrow2Lend"
       orient="auto"
       refY="0"
       refX="0"
       id="Arrow2Lend"
       style="overflow:visible"
       inkscape:isstock="true"
       inkscape:collect="always">
      <path
         id="path857"
         style="fill:#6bacca;fill-opacity:0.53571424;fill-rule:evenodd;stroke:#6bacca;stroke-width:0.625;stroke-linejoin:round;stroke-opacity:0.53571424"
         d="M 8.7185878,4.0337352 -2.2072895,0.01601326 8.7185884,-4.0017078 c -1.7454984,2.3720609 -1.7354408,5.6174519 -6e-7,8.035443 z"
         transform="matrix(-1.1,0,0,-1.1,-1.1,0)"
         inkscape:connector-curvature="0" />
    </marker>
  </defs>
  <sodipodi:namedview
     id="base"
     pagecolor="#ffffff"
     bordercolor="#666666"
     borderopacity="1.0"
     inkscape:pageopacity="0.0"
     inkscape:pageshadow="2"
     inkscape:zoom="1.4"
     inkscape:cx="287.06073"
     inkscape:cy="202.70447"
     inkscape:document-units="mm"
     inkscape:current-layer="layer1"
     showgrid="false"
     inkscape:window-width="3840"
     inkscape:window-height="2132"
     inkscape:window-x="1920"
     inkscape:window-y="0"
     inkscape:window-maximized="1"
     units="px"
     fit-margin-top="10"
     fit-margin-left="10"
     fit-margin-right="10"
     fit-margin-bottom="10" />
  <metadata
     id="metadata5">
    <rdf:RDF>
      <cc:Work
         rdf:about="">
        <dc:format>image/svg+xml</dc:format>
        <dc:type
           rdf:resource="http://purl.org/dc/dcmitype/StillImage" />
        <dc:title></dc:title>
      </cc:Work>
    </rdf:RDF>
  </metadata>
  <g
     inkscape:label="Layer 1"
     inkscape:groupmode="layer"
     id="layer1"
     transform="translate(7.4627849,-18.177431)">
    <path
       sodipodi:type="spiral"
       style="fill:none;fill-rule:evenodd;stroke:#9b00b2;stroke-width:1.85208333;stroke-miterlimit:4;stroke-dasharray:none;stroke-opacity:1;marker-end:url(#Arrow2Mend)"
       id="path815"
       sodipodi:cx="88.824402"
       sodipodi:cy="122.94196"
       sodipodi:expansion="3"
       sodipodi:revolution="5"
       sodipodi:radius="78.307007"
       sodipodi:argument="-17.963301"
       sodipodi:t0="0"
       d="m 88.824402,122.94196 c 0.0022,0.003 -0.0069,0.006 -0.0076,0.006 -0.03345,0.007 -0.04472,-0.0444 -0.04193,-0.0669 0.01432,-0.11501 0.166371,-0.13551 0.25426,-0.10645 0.265244,0.0877 0.294027,0.43484 0.191374,0.65243 -0.237556,0.50356 -0.911948,0.53653 -1.344012,0.28835 -0.850054,-0.48827 -0.879418,-1.65997 -0.389009,-2.41163 0.864466,-1.32498 2.741243,-1.33913 3.937921,-0.48499 1.948601,1.39083 1.932109,4.21813 0.567934,6.00552 -2.092118,2.74117 -6.153018,2.67479 -8.697066,0.62948 -3.722933,-2.99309 -3.583595,-8.6083 -0.661249,-12.09519 4.118511,-4.91414 11.646374,-4.67497 16.282529,-0.6549 6.335011,5.49317 5.965321,15.32964 0.60205,21.34172 -7.141842,8.0058 -19.720504,7.4711 -27.355388,0.49435 -9.946737,-9.08931 -9.208713,-24.88137 -0.323439,-34.40618 11.360361,-12.178049 30.874638,-11.194591 42.576728,-0.0809 14.71997,13.97977 13.44516,37.76271 -0.24149,51.94966 C 97.203696,171.59527 68.568031,169.97937 51.568407,153.3503 30.751829,132.98748 32.762349,98.877393 52.728042,78.717057 76.904073,54.305338 117.14788,56.767825 140.8372,80.489129 c 28.39839,28.436741 25.42279,75.511201 -2.4979,103.118001" />
    <path
       sodipodi:type="spiral"
       style="fill:none;fill-rule:evenodd;stroke:#6bacca;stroke-width:0.79374999;stroke-miterlimit:4;stroke-dasharray:none;stroke-opacity:0.53571424;marker-end:url(#Arrow2Lend)"
       id="path1182"
       sodipodi:cx="60.098213"
       sodipodi:cy="71.726189"
       sodipodi:expansion="7"
       sodipodi:revolution="4.9691448"
       sodipodi:radius="70.451843"
       sodipodi:argument="-31.222057"
       sodipodi:t0="0"
       d="m 60.098213,71.726189 c 0,0 0,0 0,0 -1e-6,2e-6 -5e-6,0 -7e-6,-2e-6 -4e-5,-2.8e-5 1.1e-5,-1.02e-4 3.1e-5,-1.22e-4 2.72e-4,-2.71e-4 7.4e-4,9.2e-5 9e-4,3.05e-4 0.0011,0.0015 -5.61e-4,0.0035 -0.0018,0.0042 -0.0059,0.0035 -0.01256,-0.0026 -0.01492,-0.0075 -0.0087,-0.01831 0.0091,-0.03715 0.02491,-0.04335 0.04876,-0.01908 0.09524,0.02685 0.109162,0.06967 0.0374,0.115029 -0.06892,0.218673 -0.171246,0.246541 -0.246925,0.06725 -0.460151,-0.158479 -0.511047,-0.3805 -0.112667,-0.491479 0.333899,-0.902123 0.779803,-0.988362 0.919536,-0.177842 1.668019,0.655194 1.805162,1.495882 0.266531,1.633836 -1.212166,2.935966 -2.715801,3.142302 -2.778761,0.381314 -4.95532,-2.134341 -5.250592,-4.706385 -0.522558,-4.551894 3.602935,-8.066229 7.837454,-8.46936 7.21754,-0.687118 12.722504,5.864998 13.248043,12.609184 C 76.10498,85.821089 65.988327,94.21677 55.554319,94.869746 38.840957,95.915694 26.337167,80.681102 25.568323,64.946758 24.368314,40.38865 46.803589,22.157996 69.99652,21.310829 c 29.720652,-1.085604 54.2756,22.413912 60.55354,50.415387" />
    <path
       sodipodi:type="spiral"
       style="fill:none;fill-rule:evenodd;stroke:#c90e10;stroke-width:1.05833328;stroke-miterlimit:4;stroke-dasharray:none;stroke-opacity:0.32653061;marker-end:url(#marker1372)"
       id="path1184"
       sodipodi:cx="65.767853"
       sodipodi:cy="121.99702"
       sodipodi:expansion="20"
       sodipodi:revolution="5.0658369"
       sodipodi:radius="114.17982"
       sodipodi:argument="-33.91188"
       sodipodi:t0="0"
       d="m 65.767853,121.99702 c 0,0 0,0 0,0 0,0 0,0 0,0 0,0 0,0 0,0 0,0 0,0 0,0 -10e-7,0 -10e-7,0 -10e-7,0 -1e-6,-1e-5 8e-6,-1e-5 1.1e-5,-1e-5 4.4e-5,-1e-5 6.1e-5,6e-5 6.2e-5,9e-5 8e-6,2.9e-4 -4.19e-4,3.9e-4 -6.3e-4,3.9e-4 -0.0016,-3e-5 -0.0021,-0.002 -0.0021,-0.004 4.91e-4,-0.008 0.0116,-0.0103 0.01778,-0.01 0.03501,0.004 0.04404,0.051 0.04025,0.0785 -0.019,0.13772 -0.203038,0.17053 -0.312926,0.15157 -0.495712,-0.0855 -0.605326,-0.74103 -0.52302,-1.14251 0.338365,-1.6505 2.504691,-1.99044 3.858934,-1.67162 5.129238,1.20753 6.11604,7.90671 4.992144,12.16383 -3.957434,14.99006 -23.47821,17.69022 -36.047133,14.0337 C -3.6682481,133.53637 -10.673506,79.618785 0.42318496,44.536359 2.844185,36.882315 6.0433603,29.480432 9.8792339,22.430492" />
    <path
       sodipodi:type="spiral"
       style="fill:none;fill-rule:evenodd;stroke:#00aa00;stroke-width:0.79374999;stroke-miterlimit:4;stroke-dasharray:none;stroke-opacity:0.48214291;marker-end:url(#marker1402)"
       id="path1186"
       sodipodi:cx="68.791672"
       sodipodi:cy="163.5744"
       sodipodi:expansion="10"
       sodipodi:revolution="5.1106009"
       sodipodi:radius="46.685188"
       sodipodi:argument="-34.760769"
       sodipodi:t0="0"
       d="m 68.791672,163.5744 c 0,0 0,0 0,0 0,0 0,0 0,0 0,0 -1e-6,0 -1e-6,0 -5e-6,0 -10e-6,0 -10e-6,-1e-5 -1.1e-5,-4e-5 4.9e-5,-6e-5 7.8e-5,-7e-5 2.23e-4,-3e-5 3.43e-4,2.6e-4 3.56e-4,4.3e-4 7e-5,9.4e-4 -0.0011,0.001 -0.0019,0.001 -0.0033,2e-5 -0.0047,-0.004 -0.0046,-0.007 5.58e-4,-0.01 0.01279,-0.014 0.02115,-0.0131 0.02728,0.003 0.0375,0.0359 0.03395,0.059 -0.01038,0.0676 -0.09174,0.0916 -0.149957,0.0803 -0.15536,-0.0301 -0.207729,-0.21688 -0.176659,-0.35226 0.07678,-0.33457 0.47976,-0.44261 0.774385,-0.36558 0.681857,0.17828 0.893811,1.0023 0.717969,1.60822 -0.384497,1.32492 -1.992545,1.72294 -3.179281,1.3477 -2.469418,-0.78081 -3.188673,-3.7926 -2.431819,-6.01991 1.507589,-4.43661 6.946966,-5.69302 10.973353,-4.23807 7.7152,2.78793 9.844556,12.298 7.161461,19.33843 -4.966134,13.03112 -21.1163,16.54346 -33.066504,11.77229 -17.649224,-7.04652 -25.24108,-27.4786 -21.827001,-45.25227" />
    <path
       sodipodi:type="spiral"
       style="fill:none;fill-rule:evenodd;stroke:#c19c00;stroke-width:0.79374999;stroke-miterlimit:4;stroke-dasharray:none;stroke-opacity:0.50510206;marker-end:url(#marker1460)"
       id="path1188"
       sodipodi:cx="158.18303"
       sodipodi:cy="109.52381"
       sodipodi:expansion="10"
       sodipodi:revolution="20.015682"
       sodipodi:radius="40.927341"
       sodipodi:argument="-123.23175"
       sodipodi:t0="0"
       d="m 158.18303,109.52381 c 0,0 0,0 0,0 0,0 0,0 0,0 0,0 0,0 0,0 0,0 0,0 0,0 0,0 0,0 0,0 0,0 0,0 0,0 0,0 0,0 0,0 0,0 0,0 0,0 0,0 0,0 0,0 0,0 0,0 0,0 0,0 0,0 0,0 0,0 0,0 0,0 0,0 0,0 0,0 0,1e-5 0,0 -1e-5,0 0,0 0,-1e-5 1e-5,-1e-5 0,0 1e-5,0 1e-5,1e-5 1e-5,1e-5 1e-5,2e-5 0,3e-5 -2e-5,10e-6 -4e-5,0 -5e-5,-2e-5 -2e-5,-3e-5 -1e-5,-6e-5 2e-5,-8e-5 5e-5,-3e-5 1e-4,0 1.3e-4,4e-5 4e-5,7e-5 0,1.6e-4 -7e-5,2e-4 -1.1e-4,7e-5 -2.4e-4,1e-5 -3e-4,-10e-5 -1e-4,-1.7e-4 0,-3.7e-4 1.5e-4,-4.6e-4 2.5e-4,-1.4e-4 5.6e-4,0 6.8e-4,2.4e-4 2e-4,3.6e-4 0,8e-4 -3.5e-4,9.9e-4 -5.2e-4,2.8e-4 -0.001,-2e-5 -0.001,-5.2e-4 -3.9e-4,-7.5e-4 3e-5,-0.002 7.5e-4,-0.002 0.001,-5.5e-4 0.002,5e-5 0.003,0.001 7.5e-4,0.001 -9e-5,0.003 -0.001,0.004 -0.002,0.001 -0.004,-1.4e-4 -0.005,-0.002 -0.001,-0.003 2.2e-4,-0.006 0.003,-0.007 0.004,-0.002 0.008,3.2e-4 0.01,0.004 0.002,0.005 -4.7e-4,0.0109 -0.005,0.0131 -0.007,0.003 -0.0144,-6.7e-4 -0.0174,-0.007 -0.004,-0.009 9.5e-4,-0.019 0.009,-0.0228 0.0115,-0.005 0.0248,0.001 0.0298,0.0124 0.007,0.0149 -0.002,0.0321 -0.0162,0.0386 -0.0193,0.009 -0.0414,-0.002 -0.0497,-0.021 -0.011,-0.0247 0.003,-0.0531 0.0271,-0.0636 0.0315,-0.0138 0.0676,0.004 0.0808,0.0347 0.0174,0.04 -0.006,0.0856 -0.0443,0.10221 -0.0504,0.0217 -0.10773,-0.007 -0.12854,-0.0561 -0.027,-0.0632 0.009,-0.13495 0.0706,-0.16085 0.0788,-0.0334 0.16821,0.0121 0.20028,0.0885 0.0411,0.0979 -0.0155,0.20869 -0.11039,0.24823 -0.12102,0.0504 -0.25773,-0.0196 -0.30625,-0.13701 -0.0615,-0.14893 0.0247,-0.31691 0.16926,-0.37621 0.18251,-0.0749 0.38804,0.0309 0.46024,0.20818 0.0907,0.22276 -0.0385,0.47325 -0.25499,0.5608 -0.27083,0.10954 -0.57494,-0.0477 -0.68072,-0.31104 -0.13179,-0.32804 0.0589,-0.6959 0.37796,-0.82326 0.39591,-0.15801 0.83929,0.0722 0.99211,0.45756 0.18885,0.47616 -0.0883,1.00877 -0.55194,1.19152 -0.57076,0.22499 -1.20844,-0.10748 -1.42631,-0.66349 -0.26723,-0.68196 0.1303,-1.443 0.79493,-1.70194 0.81229,-0.31648 1.71779,0.15737 2.02463,0.94935 0.37373,0.96462 -0.18936,2.0388 -1.13026,2.40137 -1.1422,0.44015 -2.41284,-0.22706 -2.84008,-1.34161 -0.51698,-1.34867 0.27135,-2.84756 1.58789,-3.34965 1.58815,-0.60568 3.35155,0.32322 3.94009,1.87413 0.70782,1.86523 -0.38382,3.93444 -2.20599,4.62259 -2.1851,0.82521 -4.60705,-0.45442 -5.40971,-2.58982 -0.95983,-2.5535 0.53642,-5.38144 3.03272,-6.31548 2.9769,-1.11387 6.27109,0.63148 7.35554,3.54266 1.2898,3.46247 -0.74138,7.291 -4.1285,8.54728 -4.01819,1.49035 -8.45786,-0.86812 -9.9101,-4.80011 -1.7185,-4.65293 1.01399,-9.79018 5.56851,-11.46544 5.37651,-1.977609 11.30852,1.18147 13.23713,6.44585 2.27133,6.19985 -1.37338,13.03562 -7.44568,15.25154 -7.13498,2.60372 -14.99661,-1.59281 -17.53777,-8.58298 -2.97924,-8.19517 1.84321,-17.219221 9.87427,-20.127951 9.39511,-3.402769 19.73407,2.12841 23.0575,11.337831 3.87971,10.75091 -2.45261,22.5748 -12.9938,26.36537 -12.28032,4.41595 -25.77843,-2.82049 -30.09437,-14.86431 -5.01797,-14.00285 3.23717,-29.385613 16.97374,-34.291544 15.93984,-5.692815 33.44091,3.708332 39.0084,19.348844 6.44822,18.11473 -4.2402,37.99315 -22.01894,44.30137 -15.37564,5.45555 -32.79007,0.0876 -43.09416,-12.38569" />
  </g>
</svg>
